<svg width="66" height="50" viewBox="0 0 66 50" fill="none" xmlns="http://www.w3.org/2000/svg">
<path opacity="0.2" d="M13.6084 13.6077C14.2122 11.9931 15.7591 10.9224 17.488 10.9224H60.0387C62.9258 10.9224 64.9265 13.7933 63.9183 16.4895L52.3916 47.3147C51.7878 48.9293 50.2409 50 48.512 50H5.96133C3.07419 50 1.07354 47.1291 2.08176 44.4329L13.6084 13.6077Z" fill="white"/>
<path opacity="0.4" d="M9.02415 9.3037C9.44328 7.41355 11.1245 6.06787 13.0668 6.06787H55.974C58.6208 6.06787 60.5879 8.50886 60.0167 11.0845L52.105 46.7641C51.6858 48.6542 50.0046 49.9999 48.0623 49.9999H5.15506C2.50835 49.9999 0.541254 47.5589 1.11238 44.9833L9.02415 9.3037Z" fill="white"/>
<path opacity="0.6" d="M4.49967 4.93128C4.71035 2.82108 6.49172 1.21362 8.61954 1.21362H51.6857C54.1343 1.21362 56.048 3.32003 55.8055 5.74839L51.7586 46.2824C51.5479 48.3926 49.7666 50 47.6387 50H4.57262C2.12399 50 0.210294 47.8936 0.452742 45.4653L4.49967 4.93128Z" fill="white"/>
<path d="M0 4.12621C0 1.84737 1.85364 0 4.14022 0H47.2472C49.5338 0 51.3875 1.84737 51.3875 4.12621V45.8738C51.3875 48.1526 49.5338 50 47.2472 50H4.14022C1.85364 50 0 48.1526 0 45.8738V4.12621Z" fill="white"/>
<path opacity="0.8" fill-rule="evenodd" clip-rule="evenodd" d="M33.5784 24.8014C33.5784 20.2844 30.0252 16.6654 25.6937 16.6654L25.6937 10.9224C33.1819 10.9224 39.2103 17.1599 39.2103 24.8014C39.2103 32.443 33.1819 38.6805 25.6937 38.6805L25.6937 32.9375C30.0252 32.9375 33.5784 29.3185 33.5784 24.8014Z" fill="#262146"/>
<path fill-rule="evenodd" clip-rule="evenodd" d="M20.0618 24.8014C20.0618 20.2844 16.5086 16.6654 12.1771 16.6654L12.1771 10.9224C19.6653 10.9224 25.6937 17.1599 25.6937 24.8014C25.6937 32.443 19.6653 38.6805 12.1771 38.6805L12.1771 32.9375C16.5086 32.9375 20.0618 29.3185 20.0618 24.8014Z" fill="#262146"/>
<path d="M25.6937 38.6804H12.1771V32.9655H25.6937V38.6804Z" fill="#514D6B"/>
<path d="M25.6937 16.6372H12.1771V10.9223H25.6937V16.6372Z" fill="#FF3E3E"/>
</svg>
